<svg preserveAspectRatio="none" width="100%" height="100%" overflow="visible" style="display: block;" viewBox="0 0 14.3333 16" fill="none" xmlns="http://www.w3.org/2000/svg">
<path id="Vector" d="M10.5 0.5V3.83333M3.83333 0.5V3.83333M0.5 7.16667H13.8333M3.83333 9.66667V13M7.16667 9.66667V13M10.5 9.66667V13M0.5 3.83333C0.5 3.39131 0.675595 2.96738 0.988155 2.65482C1.30072 2.34226 1.72464 2.16667 2.16667 2.16667H12.1667C12.6087 2.16667 13.0326 2.34226 13.3452 2.65482C13.6577 2.96738 13.8333 3.39131 13.8333 3.83333V13.8333C13.8333 14.2754 13.6577 14.6993 13.3452 15.0118C13.0326 15.3244 12.6087 15.5 12.1667 15.5H2.16667C1.72464 15.5 1.30072 15.3244 0.988155 15.0118C0.675595 14.6993 0.5 14.2754 0.5 13.8333V3.83333Z" stroke="var(--stroke-0, #A2B4B1)" stroke-linecap="round" stroke-linejoin="round"/>
</svg>
