<svg preserveAspectRatio="none" width="100%" height="100%" overflow="visible" style="display: block;" viewBox="0 0 18.9743 19" fill="none" xmlns="http://www.w3.org/2000/svg">
<path id="Vector" d="M1.48633 11.5L9.48633 8.5L17.4863 11.5M9.48714 0.5C11.823 2.56658 14.8716 3.64257 17.9871 3.5C18.4407 5.04302 18.5795 6.66147 18.3953 8.25918C18.211 9.8569 17.7075 11.4013 16.9145 12.8005C16.1216 14.1998 15.0555 15.4254 13.7796 16.4045C12.5037 17.3836 11.0439 18.0962 9.48714 18.5C7.93035 18.0962 6.47062 17.3836 5.19468 16.4045C3.91875 15.4254 2.85265 14.1998 2.05973 12.8005C1.26682 11.4013 0.763273 9.8569 0.579014 8.25918C0.394756 6.66147 0.533547 5.04302 0.987139 3.5C4.10267 3.64257 7.15131 2.56658 9.48714 0.5Z" stroke="var(--stroke-0, #A2B4B1)" stroke-linecap="round" stroke-linejoin="round"/>
</svg>
