<svg preserveAspectRatio="none" width="100%" height="100%" overflow="visible" style="display: block;" viewBox="0 0 17.2497 15" fill="none" xmlns="http://www.w3.org/2000/svg">
<path id="Vector" d="M11.115 0L11.2175 0.00500003C12.8958 0.183333 14.1567 0.565 15.3558 1.39917C15.4989 1.49901 15.6071 1.64125 15.665 1.80583C17.2283 6.235 17.6425 10.1283 16.8742 12.0392C16.0383 13.71 14.7025 15 13.2125 15C12.6025 15 11.8017 14.1933 11.2725 13.2958C11.8632 13.1883 12.4481 13.0512 13.025 12.885C13.1303 12.8549 13.2286 12.8044 13.3143 12.7363C13.4001 12.6682 13.4716 12.5839 13.5247 12.4882C13.5779 12.3924 13.6117 12.2872 13.6242 12.1784C13.6367 12.0696 13.6276 11.9594 13.5975 11.8542C13.5674 11.7489 13.5169 11.6506 13.4488 11.5648C13.3807 11.4791 13.2964 11.4076 13.2006 11.3544C13.1049 11.3013 12.9997 11.2675 12.8909 11.255C12.7821 11.2425 12.6719 11.2516 12.5667 11.2817C9.8 12.0733 7.45833 12.0733 4.69166 11.2817C4.47905 11.2209 4.251 11.2471 4.05768 11.3544C3.86436 11.4618 3.72161 11.6416 3.66083 11.8542C3.60005 12.0668 3.62622 12.2948 3.73359 12.4882C3.84095 12.6815 4.02072 12.8242 4.23333 12.885C4.83083 13.055 5.41333 13.1933 5.98583 13.2967C5.45666 14.1925 4.65583 15 4.04583 15C2.55583 15 1.22 13.71 0.355831 11.9758C-0.384169 10.1283 0.0308313 6.23417 1.59333 1.80583C1.65127 1.64125 1.75941 1.49901 1.9025 1.39917C3.10166 0.565 4.3625 0.183333 6.04083 0.00500003C6.19138 -0.0110603 6.34347 0.0141997 6.48075 0.0780668C6.61802 0.141934 6.73531 0.241995 6.82 0.3675L6.8725 0.456667L7.415 1.5275L7.52916 1.51417C8.26142 1.43917 8.99941 1.43917 9.73166 1.51417L9.84333 1.5275L10.385 0.4575C10.4456 0.337327 10.5344 0.233622 10.6438 0.155255C10.7533 0.076888 10.88 0.0261911 11.0133 0.00750005L11.115 0ZM6.12916 5.83333C5.73088 5.83332 5.34576 5.97593 5.04355 6.23534C4.74133 6.49475 4.542 6.85381 4.48166 7.2475L4.46666 7.37583L4.4625 7.5L4.46666 7.625C4.49099 7.94837 4.60912 8.25763 4.80658 8.51486C5.00405 8.7721 5.27226 8.96614 5.57837 9.07321C5.88447 9.18027 6.21516 9.19572 6.52991 9.11764C6.84465 9.03956 7.12979 8.87136 7.35036 8.63365C7.57094 8.39594 7.71738 8.09903 7.77173 7.77933C7.82608 7.45964 7.78598 7.13102 7.65635 6.83377C7.52672 6.53652 7.31319 6.28354 7.04193 6.10584C6.77067 5.92814 6.45345 5.83344 6.12916 5.83333ZM11.1292 5.83333C10.7309 5.83332 10.3458 5.97593 10.0435 6.23534C9.74133 6.49475 9.542 6.85381 9.48166 7.2475L9.46666 7.37583L9.4625 7.5L9.46666 7.625C9.49099 7.94837 9.60912 8.25763 9.80658 8.51486C10.004 8.7721 10.2723 8.96614 10.5784 9.07321C10.8845 9.18027 11.2152 9.19572 11.5299 9.11764C11.8447 9.03956 12.1298 8.87136 12.3504 8.63365C12.5709 8.39594 12.7174 8.09903 12.7717 7.77933C12.8261 7.45964 12.786 7.13102 12.6564 6.83377C12.5267 6.53652 12.3132 6.28354 12.0419 6.10584C11.7707 5.92814 11.4535 5.83344 11.1292 5.83333Z" fill="var(--fill-0, #5865F2)"/>
</svg>
