<svg preserveAspectRatio="none" width="100%" height="100%" overflow="visible" style="display: block;" viewBox="0 0 21.0196 15.9994" fill="none" xmlns="http://www.w3.org/2000/svg">
<path id="Vector" d="M12.4824 10.4998L16.5524 14.7838C16.8952 15.1445 17.3456 15.3843 17.8362 15.4672C18.3268 15.5501 18.8311 15.4717 19.2733 15.2438C19.7156 15.0158 20.072 14.6506 20.2891 14.2029C20.5062 13.7552 20.5723 13.2492 20.4774 12.7608L18.8774 4.52881M6.48242 4.5V6.5M5.48242 5.5H7.48242M12.4824 5.5H14.4824M13.9827 0.5C15.3087 0.5 16.5805 1.02678 17.5182 1.96447C18.4559 2.90215 18.9827 4.17392 18.9827 5.5C18.9827 6.82608 18.4559 8.09785 17.5182 9.03553C16.5805 9.97322 15.3087 10.5 13.9827 10.5H8.48266L4.46766 14.727C4.12422 15.0886 3.67256 15.3288 3.18075 15.4113C2.68893 15.4939 2.1836 15.4143 1.74092 15.1847C1.29824 14.9551 0.94219 14.5878 0.726423 14.1382C0.510656 13.6886 0.446865 13.181 0.544663 12.692L2.17866 4.519C2.40547 3.38546 3.01805 2.36553 3.91216 1.63278C4.80627 0.900027 5.92666 0.499727 7.08266 0.5H13.9827Z" stroke="var(--stroke-0, #A2B4B1)" stroke-linecap="round" stroke-linejoin="round"/>
</svg>
