<svg preserveAspectRatio="none" width="100%" height="100%" overflow="visible" style="display: block;" viewBox="0 0 19 17.0456" fill="none" xmlns="http://www.w3.org/2000/svg">
<path id="Vector" d="M10.9502 8.09541L13.0002 6.04541M7.5 9.54541C7.5 10.0758 7.71071 10.5846 8.08579 10.9596C8.46086 11.3347 8.96957 11.5454 9.5 11.5454C10.0304 11.5454 10.5391 11.3347 10.9142 10.9596C11.2893 10.5846 11.5 10.0758 11.5 9.54541C11.5 9.01498 11.2893 8.50627 10.9142 8.1312C10.5391 7.75612 10.0304 7.54541 9.5 7.54541C8.96957 7.54541 8.46086 7.75612 8.08579 8.1312C7.71071 8.50627 7.5 9.01498 7.5 9.54541ZM3.9 16.5456C2.43815 15.3836 1.37391 13.7958 0.854779 12.002C0.335644 10.2083 0.387321 8.29745 1.00265 6.53437C1.61797 4.77129 2.76647 3.24327 4.28899 2.16206C5.8115 1.08085 7.63263 0.5 9.5 0.5C11.3674 0.5 13.1885 1.08085 14.711 2.16206C16.2335 3.24327 17.382 4.77129 17.9974 6.53437C18.6127 8.29745 18.6644 10.2083 18.1452 12.002C17.6261 13.7958 16.5619 15.3836 15.1 16.5456H3.9Z" stroke="var(--stroke-0, #A2B4B1)" stroke-linecap="round" stroke-linejoin="round"/>
</svg>
