<svg preserveAspectRatio="none" width="100%" height="100%" overflow="visible" style="display: block;" viewBox="0 0 19 17" fill="none" xmlns="http://www.w3.org/2000/svg">
<path id="Vector" d="M6.5 15.5V9.5C6.5 9.23478 6.39464 8.98043 6.20711 8.79289C6.01957 8.60536 5.76522 8.5 5.5 8.5H1.5C1.23478 8.5 0.98043 8.60536 0.792893 8.79289C0.605357 8.98043 0.5 9.23478 0.5 9.5V15.5C0.5 15.7652 0.605357 16.0196 0.792893 16.2071C0.98043 16.3946 1.23478 16.5 1.5 16.5H5.5C5.76522 16.5 6.01957 16.3946 6.20711 16.2071C6.39464 16.0196 6.5 15.7652 6.5 15.5ZM6.5 15.5C6.5 15.7652 6.60536 16.0196 6.79289 16.2071C6.98043 16.3946 7.23478 16.5 7.5 16.5H11.5C11.7652 16.5 12.0196 16.3946 12.2071 16.2071C12.3946 16.0196 12.5 15.7652 12.5 15.5M6.5 15.5V1.5C6.5 1.23478 6.60536 0.98043 6.79289 0.792893C6.98043 0.605357 7.23478 0.5 7.5 0.5H11.5C11.7652 0.5 12.0196 0.605357 12.2071 0.792893C12.3946 0.98043 12.5 1.23478 12.5 1.5V15.5M12.5 15.5C12.5 15.7652 12.6054 16.0196 12.7929 16.2071C12.9804 16.3946 13.2348 16.5 13.5 16.5H17.5C17.7652 16.5 18.0196 16.3946 18.2071 16.2071C18.3946 16.0196 18.5 15.7652 18.5 15.5V5.5C18.5 5.23478 18.3946 4.98043 18.2071 4.79289C18.0196 4.60536 17.7652 4.5 17.5 4.5H13.5C13.2348 4.5 12.9804 4.60536 12.7929 4.79289C12.6054 4.98043 12.5 5.23478 12.5 5.5V15.5ZM2.5 16.5L16.5 16.5" stroke="var(--stroke-0, #A2B4B1)" stroke-linecap="round" stroke-linejoin="round"/>
</svg>
