<svg preserveAspectRatio="none" width="100%" height="100%" overflow="visible" style="display: block;" viewBox="0 0 65.0006 15.2126" fill="none" xmlns="http://www.w3.org/2000/svg">
<g id="Group 1000004300">
<path id="Vector" d="M6.85996 2.9122C7.87518 2.9122 8.58584 3.05697 9.16596 3.2019V5.27379C8.35379 5.07095 7.70114 4.98393 6.97599 4.98393C5.58369 4.98393 3.98835 5.30274 2.48003 6.47626V11.5906H0V3.05697H2.48003V4.50579C3.7563 3.36123 5.26462 2.9122 6.85996 2.9122Z" fill="var(--fill-0, #99F9EA)"/>
<path id="Vector_2" d="M10.1836 0H12.6636V2.15875H10.1836V0ZM10.1836 3.05696H12.6636V11.5905H10.1836V3.05696Z" fill="var(--fill-0, #99F9EA)"/>
<path id="Vector_3" d="M23.7467 3.05664V5.12852L17.351 9.51849H23.7467V11.5902H13.6816V9.51849L20.0775 5.12852H13.6816V3.05664H23.7467Z" fill="var(--fill-0, #99F9EA)"/>
<path id="Vector_4" d="M30.1433 9.72157C31.8547 9.72157 32.8989 9.40276 33.5226 8.5335H35.988C35.4224 10.7068 33.305 11.7354 30.1433 11.7354C26.8946 11.7354 24.3711 10.4605 24.3711 7.33103C24.3711 4.18704 26.8221 2.91211 30.2884 2.91211C33.537 2.91211 36.1331 4.02771 36.1331 7.91043H26.9091C27.1847 9.27238 28.49 9.72157 30.1433 9.72157ZM30.2738 4.79555C28.577 4.79555 27.3877 5.12876 26.9962 6.33124H33.4791C33.0584 5.12876 31.8402 4.79555 30.2738 4.79555Z" fill="var(--fill-0, #99F9EA)"/>
<path id="Vector_5" d="M36.8945 9.64941H39.3745V11.5908H36.8945V9.64941Z" fill="var(--fill-0, #99F9EA)"/>
<path id="Vector_6" d="M49.8147 3.05688H52.3092V10.2287C52.3092 13.7059 49.9742 15.2126 46.74 15.2126C44.26 15.2126 42.2151 14.749 41.3884 14.5316V12.5322C42.3891 12.7206 44.3035 13.1407 46.1889 13.1407C48.7559 13.1407 49.7131 12.1556 49.8147 9.96776C48.9445 10.924 47.5087 11.489 45.4928 11.489C42.5632 11.489 40.4746 10.2141 40.4746 7.2005C40.4746 4.18704 42.5632 2.91211 45.4928 2.91211C47.5231 2.91211 48.9589 3.47711 49.8147 4.43324V3.05688ZM46.3919 9.41731C48.727 9.41731 49.8147 8.76529 49.8147 7.2005C49.8147 5.63586 48.727 4.98384 46.3919 4.98384C44.057 4.98384 42.9547 5.63586 42.9547 7.2005C42.9547 8.76529 44.057 9.41731 46.3919 9.41731Z" fill="var(--fill-0, #99F9EA)"/>
<path id="Vector_7" d="M62.5061 3.05688H65.0006V10.2287C65.0006 13.7059 62.6656 15.2126 59.4314 15.2126C56.9514 15.2126 54.9064 14.749 54.0797 14.5316V12.5322C55.0804 12.7206 56.9949 13.1407 58.8803 13.1407C61.4473 13.1407 62.4045 12.1556 62.5061 9.96776C61.6359 10.924 60.2 11.489 58.184 11.489C55.2544 11.489 53.166 10.2141 53.166 7.2005C53.166 4.18704 55.2544 2.91211 58.184 2.91211C60.2145 2.91211 61.6503 3.47711 62.5061 4.43324V3.05688ZM59.0833 9.41731C61.4184 9.41731 62.5061 8.76529 62.5061 7.2005C62.5061 5.63586 61.4184 4.98384 59.0833 4.98384C56.7483 4.98384 55.6462 5.63586 55.6462 7.2005C55.6462 8.76529 56.7483 9.41731 59.0833 9.41731Z" fill="var(--fill-0, #99F9EA)"/>
</g>
</svg>
