<svg preserveAspectRatio="none" width="100%" height="100%" overflow="visible" style="display: block;" viewBox="0 0 19 18" fill="none" xmlns="http://www.w3.org/2000/svg">
<path id="Vector" d="M5.5 17.5H13.5M9.5 13.5V17.5M9.5 13.5C10.8261 13.5 12.0979 12.9732 13.0355 12.0355C13.9732 11.0979 14.5 9.82608 14.5 8.5V0.5H4.5V8.5C4.5 9.82608 5.02678 11.0979 5.96447 12.0355C6.90215 12.9732 8.17392 13.5 9.5 13.5ZM0.5 5.5C0.5 6.03043 0.710714 6.53914 1.08579 6.91421C1.46086 7.28929 1.96957 7.5 2.5 7.5C3.03043 7.5 3.53914 7.28929 3.91421 6.91421C4.28929 6.53914 4.5 6.03043 4.5 5.5C4.5 4.96957 4.28929 4.46086 3.91421 4.08579C3.53914 3.71071 3.03043 3.5 2.5 3.5C1.96957 3.5 1.46086 3.71071 1.08579 4.08579C0.710714 4.46086 0.5 4.96957 0.5 5.5ZM14.5 5.5C14.5 6.03043 14.7107 6.53914 15.0858 6.91421C15.4609 7.28929 15.9696 7.5 16.5 7.5C17.0304 7.5 17.5391 7.28929 17.9142 6.91421C18.2893 6.53914 18.5 6.03043 18.5 5.5C18.5 4.96957 18.2893 4.46086 17.9142 4.08579C17.5391 3.71071 17.0304 3.5 16.5 3.5C15.9696 3.5 15.4609 3.71071 15.0858 4.08579C14.7107 4.46086 14.5 4.96957 14.5 5.5Z" stroke="var(--stroke-0, #A2B4B1)" stroke-linecap="round" stroke-linejoin="round"/>
</svg>
