<svg preserveAspectRatio="none" width="100%" height="100%" overflow="visible" style="display: block;" viewBox="0 0 16 16" fill="none" xmlns="http://www.w3.org/2000/svg">
<g id="Frame" clip-path="url(#clip0_0_339)">
<g id="Vector">
</g>
<path id="Vector_2" d="M7.33333 8C7.33333 8.17681 7.40357 8.34638 7.5286 8.4714C7.65362 8.59643 7.82319 8.66667 8 8.66667C8.17681 8.66667 8.34638 8.59643 8.4714 8.4714C8.59643 8.34638 8.66667 8.17681 8.66667 8C8.66667 7.82319 8.59643 7.65362 8.4714 7.5286C8.34638 7.40357 8.17681 7.33333 8 7.33333C7.82319 7.33333 7.65362 7.40357 7.5286 7.5286C7.40357 7.65362 7.33333 7.82319 7.33333 8Z" stroke="var(--stroke-0, #A2B4B1)" stroke-linecap="round" stroke-linejoin="round"/>
<path id="Vector_3" d="M7.33333 12.6667C7.33333 12.8435 7.40357 13.013 7.5286 13.1381C7.65362 13.2631 7.82319 13.3333 8 13.3333C8.17681 13.3333 8.34638 13.2631 8.4714 13.1381C8.59643 13.013 8.66667 12.8435 8.66667 12.6667C8.66667 12.4899 8.59643 12.3203 8.4714 12.1953C8.34638 12.0702 8.17681 12 8 12C7.82319 12 7.65362 12.0702 7.5286 12.1953C7.40357 12.3203 7.33333 12.4899 7.33333 12.6667Z" stroke="var(--stroke-0, #A2B4B1)" stroke-linecap="round" stroke-linejoin="round"/>
<path id="Vector_4" d="M7.33333 3.33333C7.33333 3.51014 7.40357 3.67971 7.5286 3.80474C7.65362 3.92976 7.82319 4 8 4C8.17681 4 8.34638 3.92976 8.4714 3.80474C8.59643 3.67971 8.66667 3.51014 8.66667 3.33333C8.66667 3.15652 8.59643 2.98695 8.4714 2.86193C8.34638 2.7369 8.17681 2.66667 8 2.66667C7.82319 2.66667 7.65362 2.7369 7.5286 2.86193C7.40357 2.98695 7.33333 3.15652 7.33333 3.33333Z" stroke="var(--stroke-0, #A2B4B1)" stroke-linecap="round" stroke-linejoin="round"/>
</g>
<defs>
<clipPath id="clip0_0_339">
<rect width="16" height="16" fill="white"/>
</clipPath>
</defs>
</svg>
