<svg preserveAspectRatio="none" width="100%" height="100%" overflow="visible" style="display: block;" viewBox="0 0 19 19" fill="none" xmlns="http://www.w3.org/2000/svg">
<path id="Vector" d="M0.5 18.5V16.5C0.5 15.4391 0.921427 14.4217 1.67157 13.6716C2.42172 12.9214 3.43913 12.5 4.5 12.5H8.5C9.56087 12.5 10.5783 12.9214 11.3284 13.6716C12.0786 14.4217 12.5 15.4391 12.5 16.5V18.5M13.5 0.629883C14.3604 0.850184 15.123 1.35058 15.6676 2.05219C16.2122 2.7538 16.5078 3.61671 16.5078 4.50488C16.5078 5.39305 16.2122 6.25596 15.6676 6.95757C15.123 7.65918 14.3604 8.15958 13.5 8.37988M18.5 18.4999V16.4999C18.4949 15.6171 18.1979 14.7607 17.6553 14.0643C17.1126 13.3679 16.3548 12.8706 15.5 12.6499M2.5 4.5C2.5 5.56087 2.92143 6.57828 3.67157 7.32843C4.42172 8.07857 5.43913 8.5 6.5 8.5C7.56087 8.5 8.57828 8.07857 9.32843 7.32843C10.0786 6.57828 10.5 5.56087 10.5 4.5C10.5 3.43913 10.0786 2.42172 9.32843 1.67157C8.57828 0.921427 7.56087 0.5 6.5 0.5C5.43913 0.5 4.42172 0.921427 3.67157 1.67157C2.92143 2.42172 2.5 3.43913 2.5 4.5Z" stroke="var(--stroke-0, #A2B4B1)" stroke-linecap="round" stroke-linejoin="round"/>
</svg>
