<svg preserveAspectRatio="none" width="100%" height="100%" overflow="visible" style="display: block;" viewBox="0 0 17 17" fill="none" xmlns="http://www.w3.org/2000/svg">
<path id="Vector" d="M10.5 13.5H16.5M13.5 10.5V16.5M0.5 1.5C0.5 1.23478 0.605357 0.98043 0.792893 0.792893C0.98043 0.605357 1.23478 0.5 1.5 0.5H5.5C5.76522 0.5 6.01957 0.605357 6.20711 0.792893C6.39464 0.98043 6.5 1.23478 6.5 1.5V5.5C6.5 5.76522 6.39464 6.01957 6.20711 6.20711C6.01957 6.39464 5.76522 6.5 5.5 6.5H1.5C1.23478 6.5 0.98043 6.39464 0.792893 6.20711C0.605357 6.01957 0.5 5.76522 0.5 5.5V1.5ZM10.5 1.5C10.5 1.23478 10.6054 0.98043 10.7929 0.792893C10.9804 0.605357 11.2348 0.5 11.5 0.5H15.5C15.7652 0.5 16.0196 0.605357 16.2071 0.792893C16.3946 0.98043 16.5 1.23478 16.5 1.5V5.5C16.5 5.76522 16.3946 6.01957 16.2071 6.20711C16.0196 6.39464 15.7652 6.5 15.5 6.5H11.5C11.2348 6.5 10.9804 6.39464 10.7929 6.20711C10.6054 6.01957 10.5 5.76522 10.5 5.5V1.5ZM0.5 11.5C0.5 11.2348 0.605357 10.9804 0.792893 10.7929C0.98043 10.6054 1.23478 10.5 1.5 10.5H5.5C5.76522 10.5 6.01957 10.6054 6.20711 10.7929C6.39464 10.9804 6.5 11.2348 6.5 11.5V15.5C6.5 15.7652 6.39464 16.0196 6.20711 16.2071C6.01957 16.3946 5.76522 16.5 5.5 16.5H1.5C1.23478 16.5 0.98043 16.3946 0.792893 16.2071C0.605357 16.0196 0.5 15.7652 0.5 15.5V11.5Z" stroke="var(--stroke-0, #A2B4B1)" stroke-linecap="round" stroke-linejoin="round"/>
</svg>
