<svg preserveAspectRatio="none" width="100%" height="100%" overflow="visible" style="display: block;" viewBox="0 0 17.6667 17.6667" fill="none" xmlns="http://www.w3.org/2000/svg">
<path id="Vector" d="M3.83333 2.16667C3.83333 2.60869 3.65774 3.03262 3.34518 3.34518C3.03262 3.65774 2.60869 3.83333 2.16667 3.83333C1.72464 3.83333 1.30072 3.65774 0.988155 3.34518C0.675595 3.03262 0.5 2.60869 0.5 2.16667C0.5 1.72464 0.675595 1.30072 0.988155 0.988155C1.30072 0.675595 1.72464 0.5 2.16667 0.5C2.60869 0.5 3.03262 0.675595 3.34518 0.988155C3.65774 1.30072 3.83333 1.72464 3.83333 2.16667ZM3.83333 2.16667H9.66667C9.88768 2.16667 10.0996 2.25446 10.2559 2.41074C10.4122 2.56702 10.5 2.77899 10.5 3V11.3333C10.5 11.5543 10.4122 11.7663 10.2559 11.9226C10.0996 12.0789 9.88768 12.1667 9.66667 12.1667H8M13.8333 7.16667C13.8333 7.60869 14.0089 8.03262 14.3215 8.34518C14.634 8.65774 15.058 8.83333 15.5 8.83333C15.942 8.83333 16.3659 8.65774 16.6785 8.34518C16.9911 8.03262 17.1667 7.60869 17.1667 7.16667C17.1667 6.72464 16.9911 6.30072 16.6785 5.98816C16.3659 5.67559 15.942 5.5 15.5 5.5C15.058 5.5 14.634 5.67559 14.3215 5.98816C14.0089 6.30072 13.8333 6.72464 13.8333 7.16667ZM13.8333 7.16667H10.5M3.83333 8.83333C3.83333 9.27536 3.65774 9.69928 3.34518 10.0118C3.03262 10.3244 2.60869 10.5 2.16667 10.5C1.72464 10.5 1.30072 10.3244 0.988155 10.0118C0.675595 9.69928 0.5 9.27536 0.5 8.83333C0.5 8.39131 0.675595 7.96738 0.988155 7.65482C1.30072 7.34226 1.72464 7.16667 2.16667 7.16667C2.60869 7.16667 3.03262 7.34226 3.34518 7.65482C3.65774 7.96738 3.83333 8.39131 3.83333 8.83333ZM3.83333 8.83333H6.33333C6.55435 8.83333 6.76631 8.92113 6.92259 9.07741C7.07887 9.23369 7.16667 9.44565 7.16667 9.66667V14.6667C7.16667 14.8877 7.07887 15.0996 6.92259 15.2559C6.76631 15.4122 6.55435 15.5 6.33333 15.5H3.83333M3.83333 15.5C3.83333 15.942 3.65774 16.3659 3.34518 16.6785C3.03262 16.9911 2.60869 17.1667 2.16667 17.1667C1.72464 17.1667 1.30072 16.9911 0.988155 16.6785C0.675595 16.3659 0.5 15.942 0.5 15.5C0.5 15.058 0.675595 14.634 0.988155 14.3215C1.30072 14.0089 1.72464 13.8333 2.16667 13.8333C2.60869 13.8333 3.03262 14.0089 3.34518 14.3215C3.65774 14.634 3.83333 15.058 3.83333 15.5Z" stroke="var(--stroke-0, #A2B4B1)" stroke-linecap="round" stroke-linejoin="round"/>
</svg>
